<svg width="15" height="18" viewBox="0 0 15 18" fill="none" xmlns="http://www.w3.org/2000/svg">
<path d="M5.67775 7.7016C5.20873 7.7016 4.83844 8.1048 4.83844 8.59671C4.83844 9.08861 5.21695 9.49181 5.67775 9.49181C6.14678 9.49181 6.51707 9.08861 6.51707 8.59671C6.5253 8.1048 6.14678 7.7016 5.67775 7.7016ZM8.68118 7.7016C8.21215 7.7016 7.84187 8.1048 7.84187 8.59671C7.84187 9.08861 8.22038 9.49181 8.68118 9.49181C9.15021 9.49181 9.5205 9.08861 9.5205 8.59671C9.5205 8.1048 9.15021 7.7016 8.68118 7.7016Z" fill="#454F58"/>
<path d="M12.7131 0.935974H1.68686C0.757029 0.935974 0 1.67786 0 2.59716V13.4997C0 14.419 0.757029 15.1609 1.68686 15.1609H11.0181L10.5819 13.669L11.6352 14.6286L12.6309 15.5318L14.4 17.064V2.59716C14.4 1.67786 13.643 0.935974 12.7131 0.935974ZM9.53691 11.4676C9.53691 11.4676 9.24069 11.1208 8.99383 10.8144C10.0718 10.516 10.4832 9.85476 10.4832 9.85476C10.1458 10.0725 9.82491 10.2257 9.53691 10.3305C9.12548 10.4999 8.73051 10.6128 8.34377 10.6773C7.55383 10.8224 6.82971 10.7821 6.21257 10.6692C5.74354 10.5805 5.34034 10.4515 5.00297 10.3225C4.81371 10.2499 4.608 10.1612 4.40229 10.0483C4.3776 10.0322 4.35291 10.0241 4.32823 10.008C4.31177 9.99991 4.30354 9.99185 4.29531 9.98378C4.1472 9.90314 4.06491 9.84669 4.06491 9.84669C4.06491 9.84669 4.45989 10.4918 5.50491 10.7982C5.25806 11.1047 4.9536 11.4676 4.9536 11.4676C3.13509 11.4111 2.44389 10.2418 2.44389 10.2418C2.44389 7.64522 3.6288 5.54052 3.6288 5.54052C4.81371 4.66961 5.94103 4.6938 5.94103 4.6938L6.02331 4.79057C4.54217 5.20989 3.8592 5.84695 3.8592 5.84695C3.8592 5.84695 4.04023 5.75018 4.34469 5.61309C5.22514 5.23409 5.92457 5.12925 6.21257 5.10506C6.26194 5.097 6.30309 5.08893 6.35246 5.08893C6.8544 5.02442 7.42217 5.00829 8.01463 5.07281C8.79634 5.16151 9.63566 5.3873 10.4914 5.84695C10.4914 5.84695 9.84137 5.24215 8.44251 4.82282L8.55771 4.6938C8.55771 4.6938 9.68503 4.66961 10.8699 5.54052C10.8699 5.54052 12.0549 7.64522 12.0549 10.2418C12.0549 10.2418 11.3554 11.4111 9.53691 11.4676Z" fill="#454F58"/>
</svg>
