<svg width="32" height="32" viewBox="0 0 32 32" fill="none" xmlns="http://www.w3.org/2000/svg">
<circle cx="16" cy="16" r="16" fill="#2F81E7"/>
<path d="M22.6663 11.9998V13.6131C22.6663 14.6665 21.9996 15.3331 20.9463 15.3331H18.6663V10.6731C18.6663 9.93315 19.273 9.33315 20.013 9.33315C20.7397 9.33981 21.4063 9.63315 21.8863 10.1131C22.3663 10.5998 22.6663 11.2665 22.6663 11.9998Z" stroke="white" stroke-miterlimit="10" stroke-linecap="round" stroke-linejoin="round"/>
<path d="M9.33368 12.6665V21.9998C9.33368 22.5531 9.96033 22.8665 10.4003 22.5331L11.5403 21.6798C11.807 21.4798 12.1803 21.5065 12.4203 21.7465L13.527 22.8598C13.787 23.1198 14.2137 23.1198 14.4737 22.8598L15.5937 21.7398C15.827 21.5065 16.2003 21.4798 16.4603 21.6798L17.6004 22.5331C18.0404 22.8598 18.667 22.5465 18.667 21.9998V10.6665C18.667 9.93315 19.267 9.33315 20.0003 9.33315H12.667H12.0003C10.0003 9.33315 9.33368 10.5265 9.33368 11.9998V12.6665Z" stroke="white" stroke-miterlimit="10" stroke-linecap="round" stroke-linejoin="round"/>
<path d="M12 14H16" stroke="white" stroke-linecap="round" stroke-linejoin="round"/>
<path d="M12.5 16.6669H15.5" stroke="white" stroke-linecap="round" stroke-linejoin="round"/>
</svg>
