<svg width="15" height="16" viewBox="0 0 15 16" fill="none" xmlns="http://www.w3.org/2000/svg">
<g clip-path="url(#clip0_1079_10002)">
<path d="M3.9473 14.001H1.03224V4.65416H3.9473V14.001ZM2.4882 3.37916C1.55606 3.37916 0.799988 2.61041 0.799988 1.68228C0.799988 1.23647 0.977853 0.808915 1.29445 0.493678C1.61106 0.178441 2.04046 0.00134277 2.4882 0.00134277C2.93594 0.00134277 3.36535 0.178441 3.68195 0.493678C3.99855 0.808915 4.17642 1.23647 4.17642 1.68228C4.17642 2.61041 3.42003 3.37916 2.4882 3.37916ZM14.8575 14.001H11.9487V9.45103C11.9487 8.36665 11.9267 6.97603 10.4331 6.97603C8.91748 6.97603 8.68523 8.15415 8.68523 9.3729V14.001H5.7733V4.65416H8.5691V5.92916H8.6099C8.99908 5.19478 9.94974 4.41978 11.368 4.41978C14.3183 4.41978 14.8606 6.35416 14.8606 8.86666V14.001H14.8575Z" fill="#454F58"/>
</g>
<defs>
<clipPath id="clip0_1079_10002">
<rect width="14.0606" height="16" fill="white" transform="translate(0.799988)"/>
</clipPath>
</defs>
</svg>
