<svg width="16" height="12" viewBox="0 0 16 12" fill="none" xmlns="http://www.w3.org/2000/svg">
<path d="M1.0999 1.35008C3.07625 3.02383 6.54412 5.96846 7.56336 6.8866C7.70019 7.01052 7.84695 7.07352 7.9993 7.07352C8.15135 7.07352 8.29785 7.01111 8.43437 6.88778C9.45449 5.96874 12.9224 3.02383 14.8987 1.35008C15.0218 1.24607 15.0405 1.06326 14.9409 0.936106C14.7106 0.642285 14.3673 0.473816 13.9993 0.473816H1.99931C1.63135 0.473816 1.28797 0.642285 1.05771 0.936135C0.958096 1.06326 0.976856 1.24607 1.0999 1.35008Z" fill="#4388DD"/>
<path d="M15.026 2.25716C14.9196 2.20766 14.7945 2.22492 14.7061 2.30052C12.5143 4.15852 9.71709 6.54009 8.837 7.33313C8.34304 7.77902 7.65749 7.77902 7.16238 7.33254C6.2243 6.48733 3.08307 3.81691 1.29393 2.3005C1.20486 2.2249 1.07948 2.20822 0.974009 2.25713C0.867977 2.30637 0.799999 2.41243 0.799999 2.52932V10.0739C0.799999 10.7357 1.33817 11.2739 2.00001 11.2739H14C14.6618 11.2739 15.2 10.7357 15.2 10.0739V2.52932C15.2 2.41243 15.132 2.30609 15.026 2.25716Z" fill="#4388DD"/>
</svg>
