<svg width="16" height="13" viewBox="0 0 16 13" fill="none" xmlns="http://www.w3.org/2000/svg">
<g clip-path="url(#clip0_1079_9975)">
<path d="M13.7198 3.21472C13.729 3.33824 13.729 3.46179 13.729 3.58532C13.729 7.35295 10.7594 11.6941 5.332 11.6941C3.6599 11.6941 2.10661 11.2265 0.800003 10.4147C1.03758 10.4412 1.26598 10.45 1.51269 10.45C2.89237 10.45 4.16244 10 5.17666 9.23239C3.8792 9.20591 2.79188 8.38532 2.41725 7.25591C2.60001 7.28236 2.78274 7.30001 2.97464 7.30001C3.2396 7.30001 3.5046 7.2647 3.75128 7.20297C2.399 6.93824 1.38475 5.7912 1.38475 4.4059V4.37062C1.77763 4.58239 2.23452 4.71474 2.71875 4.73236C1.92383 4.22059 1.40303 3.34707 1.40303 2.35883C1.40303 1.82943 1.5492 1.34413 1.80505 0.920599C3.25786 2.65001 5.44163 3.7794 7.89034 3.90295C7.84467 3.69119 7.81725 3.47062 7.81725 3.25003C7.81725 1.67942 9.13299 0.400024 10.7685 0.400024C11.6183 0.400024 12.3858 0.744141 12.9249 1.30002C13.5919 1.1765 14.2315 0.938253 14.798 0.611791C14.5787 1.27357 14.1127 1.82945 13.5005 2.18237C14.0944 2.12064 14.6701 1.96178 15.2 1.74121C14.798 2.30589 14.2955 2.80881 13.7198 3.21472Z" fill="#454F58"/>
</g>
<defs>
<clipPath id="clip0_1079_9975">
<rect width="14.4" height="12" fill="white" transform="translate(0.800003 0.400024)"/>
</clipPath>
</defs>
</svg>
