<svg width="16" height="11" viewBox="0 0 16 11" fill="none" xmlns="http://www.w3.org/2000/svg">
<path fill-rule="evenodd" clip-rule="evenodd" d="M15.056 2.36245C15.056 2.36245 14.9152 1.36312 14.4836 0.92313C13.936 0.34533 13.3222 0.34263 13.0409 0.309105C11.0258 0.162293 8.00315 0.162292 8.00315 0.162292H7.99685C7.99685 0.162292 4.9742 0.162293 2.9591 0.309105C2.6774 0.34263 2.06405 0.34533 1.51595 0.92313C1.0844 1.36323 0.944003 2.36245 0.944003 2.36245C0.944003 2.36245 0.800003 3.53628 0.800003 4.70954V5.8099C0.800003 6.98362 0.944003 8.15699 0.944003 8.15699C0.944003 8.15699 1.0844 9.15633 1.51595 9.59632C2.06405 10.1741 2.7836 10.156 3.104 10.2163C4.256 10.3278 8 10.3622 8 10.3622C8 10.3622 11.0258 10.3577 13.0409 10.2109C13.3222 10.1769 13.936 10.1742 14.4836 9.59643C14.9152 9.15633 15.056 8.15711 15.056 8.15711C15.056 8.15711 15.2 6.98373 15.2 5.8099V4.70954C15.2 3.53628 15.056 2.36245 15.056 2.36245ZM6.5132 7.14325L6.51275 3.06862L10.4035 5.11297L6.5132 7.14325Z" fill="#454F58"/>
</svg>
